<svg width="22" height="22" viewBox="0 0 22 22" fill="none" xmlns="http://www.w3.org/2000/svg">
<g filter="url(#filter0_b_1_3166)">
<path d="M21.4951 20.0731L17.8244 16.4843L17.7383 16.3535C17.5784 16.1942 17.3596 16.1045 17.1313 16.1045C16.903 16.1045 16.6843 16.1942 16.5243 16.3535C13.4048 19.2154 8.59795 19.371 5.29167 16.717C1.98539 14.063 1.20564 9.42306 3.46954 5.87431C5.73345 2.32557 10.3385 0.969236 14.2307 2.70484C18.1228 4.44043 20.0943 8.72939 18.8376 12.7273C18.7471 13.0161 18.8211 13.3302 19.0317 13.5512C19.2423 13.7723 19.5575 13.8667 19.8585 13.7989C20.1596 13.7311 20.4009 13.5114 20.4914 13.2226C21.9936 8.47829 19.7247 3.3727 15.1525 1.20866C10.5803 -0.955373 5.07685 0.471583 2.20237 4.56643C-0.672104 8.66129 -0.0549724 14.1951 3.65455 17.5881C7.36407 20.9811 13.0527 21.215 17.0405 18.1385L20.2906 21.3161C20.6263 21.6428 21.169 21.6428 21.5046 21.3161C21.8399 20.9847 21.8399 20.4512 21.5046 20.1198L21.4951 20.0731Z" fill="#FAFBFB"/>
</g>
<defs>
<filter id="filter0_b_1_3166" x="-9.58279" y="-9.77773" width="41.3204" height="41.3204" filterUnits="userSpaceOnUse" color-interpolation-filters="sRGB">
<feFlood flood-opacity="0" result="BackgroundImageFix"/>
<feGaussianBlur in="BackgroundImageFix" stdDeviation="4.99073"/>
<feComposite in2="SourceAlpha" operator="in" result="effect1_backgroundBlur_1_3166"/>
<feBlend mode="normal" in="SourceGraphic" in2="effect1_backgroundBlur_1_3166" result="shape"/>
</filter>
</defs>
</svg>
