<svg width="25" height="31" viewBox="0 0 25 31" fill="none" xmlns="http://www.w3.org/2000/svg">
<g opacity="0.4" filter="url(#filter0_b_1_3714)">
<!-- <path d="M14.6209 8.60759C14.6284 8.40396 14.7923 8.24006 14.9922 8.23509H16.7107C18.4217 8.22019 19.8185 9.62203 19.8359 11.3666V18.9867C19.8359 19.8223 19.5081 20.6232 18.9221 21.2067C18.331 21.7941 17.5364 22.1206 16.7107 22.1194H14.9922C14.7898 22.1119 14.6271 21.948 14.6209 21.7419V8.60759ZM17.0496 25.7363H19.6112C21.4464 25.7363 22.9401 24.2128 22.9401 22.3416V20.1439C22.9401 19.564 23.4007 19.0934 23.9682 19.0934C24.5381 19.0934 25 19.564 25 20.1439V22.3416C25 25.3725 22.5837 27.836 19.6112 27.836H17.0496C16.4822 27.836 16.0191 27.3666 16.0191 26.7868C16.0191 26.2069 16.4822 25.7363 17.0496 25.7363ZM17.0509 2.51599H19.6161C22.5812 2.51599 24.9963 4.97573 24.9988 7.99917L25 10.2466V10.2478C25 10.8264 24.5381 11.297 23.9694 11.297C23.4007 11.297 22.9401 10.8277 22.9401 10.2478L22.9388 8.00042C22.9351 6.1342 21.4464 4.61688 19.6161 4.61688H17.0509C16.4822 4.61688 16.0203 4.14505 16.0203 3.56644C16.0203 2.98658 16.4822 2.51599 17.0509 2.51599Z" fill="white"/> -->
<path d="M12 22a10 10 0 1 0 0-20 10 10 0 0 0 0 20zm0-1.5v-17a8.5 8.5 0 0 1 0 17z" fill="white"/>
</g>
<g filter="url(#filter1_b_1_3714)">
<!-- <path d="M12.5265 29.3019V1.05127C12.5265 0.471832 12.0652 0 11.4956 0C10.9274 0 10.4674 0.471832 10.4674 1.05127V2.51506H5.55114C2.58566 2.51506 0.170807 4.97631 0.1681 7.99907L0.166748 10.2465C0.166748 10.8273 0.628074 11.2964 1.19763 11.2978C1.76583 11.2978 2.22716 10.8273 2.22716 10.2479L2.22851 8.00183C2.23121 6.13519 3.72071 4.61623 5.55114 4.61623H10.4674V8.23498H9.09969C7.38832 8.22119 5.98946 9.62151 5.97323 11.3654V18.9864C5.98946 20.7316 7.38832 22.132 9.09969 22.1182H10.4674V25.7369H5.55655C3.71936 25.7369 2.22716 24.2138 2.22716 22.3417V20.1439C2.22716 19.5631 1.76583 19.0926 1.19763 19.0926C0.628074 19.0926 0.166748 19.5631 0.166748 20.1439V22.3417C0.166748 25.3713 2.58296 27.8367 5.55655 27.8367H10.4674V29.3019C10.4674 29.8813 10.9274 30.3518 11.4956 30.3518C12.0652 30.3518 12.5265 29.8813 12.5265 29.3019Z" fill="white"/> -->
<path d="M12 22a10 10 0 1 0 0-20 10 10 0 0 0 0 20zm0-1.5v-17a8.5 8.5 0 0 1 0 17z" fill="white"/>

</g>
<defs>
<filter id="filter0_b_1_3714" x="4.05097" y="-8.05401" width="31.519" height="46.46" filterUnits="userSpaceOnUse" color-interpolation-filters="sRGB">
<feFlood flood-opacity="0" result="BackgroundImageFix"/>
<feGaussianBlur in="BackgroundImageFix" stdDeviation="5.285"/>
<feComposite in2="SourceAlpha" operator="in" result="effect1_backgroundBlur_1_3714"/>
<feBlend mode="normal" in="SourceGraphic" in2="effect1_backgroundBlur_1_3714" result="shape"/>
</filter>
<filter id="filter1_b_1_3714" x="-9.81472" y="-9.98147" width="32.3227" height="50.3147" filterUnits="userSpaceOnUse" color-interpolation-filters="sRGB">
<feFlood flood-opacity="0" result="BackgroundImageFix"/>
<feGaussianBlur in="BackgroundImageFix" stdDeviation="4.99073"/>
<feComposite in2="SourceAlpha" operator="in" result="effect1_backgroundBlur_1_3714"/>
<feBlend mode="normal" in="SourceGraphic" in2="effect1_backgroundBlur_1_3714" result="shape"/>
</filter>
</defs>
</svg>
