<svg width="33" height="33" viewBox="0 0 33 33" fill="none" xmlns="http://www.w3.org/2000/svg">
<circle cx="16.5" cy="16.5" r="16.5" fill="#191B1F"/>
<path d="M20.248 19.634C20.248 20.2007 20.1063 20.7333 19.823 21.232C19.551 21.7307 19.143 22.15 18.599 22.49C18.0663 22.83 17.4317 23.034 16.695 23.102V24.479H15.59V23.102C14.5247 23 13.6633 22.6657 13.006 22.099C12.3487 21.5323 12.02 20.7843 12.02 19.855H14.094C14.128 20.297 14.2697 20.6653 14.519 20.96C14.7683 21.2433 15.1253 21.4247 15.59 21.504V17.764C14.8307 17.5713 14.213 17.3787 13.737 17.186C13.261 16.982 12.853 16.6647 12.513 16.234C12.1843 15.8033 12.02 15.214 12.02 14.466C12.02 13.5253 12.3487 12.749 13.006 12.137C13.6633 11.5137 14.5247 11.151 15.59 11.049V9.672H16.695V11.049C17.6923 11.1397 18.4913 11.457 19.092 12.001C19.704 12.5337 20.0497 13.2703 20.129 14.211H18.055C18.021 13.8597 17.885 13.548 17.647 13.276C17.409 12.9927 17.0917 12.8 16.695 12.698V16.37C17.4543 16.5513 18.072 16.744 18.548 16.948C19.024 17.1407 19.4263 17.4523 19.755 17.883C20.0837 18.3023 20.248 18.886 20.248 19.634ZM13.992 14.364C13.992 14.8287 14.128 15.1913 14.4 15.452C14.6833 15.7127 15.08 15.9223 15.59 16.081V12.647C15.1027 12.7037 14.7117 12.8793 14.417 13.174C14.1337 13.4687 13.992 13.8653 13.992 14.364ZM16.695 21.504C17.1937 21.4247 17.5847 21.2263 17.868 20.909C18.1513 20.5803 18.293 20.1893 18.293 19.736C18.293 19.2827 18.1513 18.9313 17.868 18.682C17.596 18.4213 17.205 18.2117 16.695 18.053V21.504Z" fill="#00FF5F"/>
</svg>
