<svg width="15" height="15" viewBox="0 0 15 15" fill="none" xmlns="http://www.w3.org/2000/svg">
<path d="M14.1538 7.92308C14.1538 9.81338 13.4176 11.5906 12.081 12.9272C10.7444 14.2638 8.96719 15 7.07689 15C5.18658 15 3.40935 14.2638 2.07275 12.9272C0.736162 11.5906 0 9.81338 0 7.92308C0 6.03277 0.736162 4.25554 2.07275 2.91894C3.40935 1.58235 5.18658 0.846191 7.07689 0.846191C8.96719 0.846191 10.7444 1.58235 12.081 2.91894C13.4176 4.25554 14.1538 6.03277 14.1538 7.92308Z" fill="#FEE158"/>
<path d="M14.1538 7.92308C14.1538 9.81338 13.4176 11.5906 12.081 12.9272C10.7444 14.2638 8.96719 15 7.0769 15V0.846191C8.96719 0.846191 10.7444 1.58235 12.081 2.91894C13.4176 4.25554 14.1538 6.03277 14.1538 7.92308Z" fill="#FFB528"/>
<circle cx="7.09064" cy="7.93683" r="5.51495" fill="#FFB528"/>
<path d="M12.661 7.92309C12.661 11.0021 10.1559 13.5072 7.0769 13.5072V2.33899C10.1559 2.33899 12.661 4.84409 12.661 7.92309Z" fill="#FE8C01"/>
<path d="M9.19852 7.83678C9.10562 7.7439 9.00446 7.66263 8.89691 7.59297C9.15097 7.30795 9.30603 6.93255 9.30603 6.5212C9.30603 6.09216 9.13797 5.68745 8.83305 5.38254C8.52786 5.07735 8.12341 4.90928 7.69412 4.90928H7.49149V4.10815H6.66217V4.90928H4.83655V5.7386H5.51382V10.1075H4.83655V10.9368H6.66217V11.7379H7.49149V10.9368H7.91527C8.91681 10.9368 9.73175 10.1218 9.73175 9.1203C9.73175 8.63654 9.54239 8.18068 9.19852 7.83678ZM6.34314 5.7386H7.69412C7.90199 5.7386 8.09799 5.82042 8.24643 5.96887C8.3949 6.11732 8.47672 6.3136 8.47672 6.5212C8.47672 6.94858 8.13254 7.2969 7.70683 7.30353H6.34314V5.7386ZM7.91527 10.1075H6.34314V8.13341L7.07681 8.13313L7.91527 8.13286C8.17734 8.13286 8.42502 8.23596 8.61218 8.4234C8.79932 8.61054 8.90244 8.85796 8.90244 9.1203C8.90244 9.66461 8.45958 10.1075 7.91527 10.1075Z" fill="#FEE158"/>
<path d="M9.73184 9.12029C9.73184 10.1218 8.9169 10.9368 7.91534 10.9368H7.49155V11.7379H7.0769V10.1075H7.91534C8.45963 10.1075 8.9025 9.66461 8.9025 9.12029C8.9025 8.85796 8.79941 8.61054 8.61224 8.42339C8.42511 8.23596 8.1774 8.13285 7.91534 8.13285L7.0769 8.13313V7.30353H7.70691C8.1326 7.29689 8.47681 6.94858 8.47681 6.52121C8.47681 6.3136 8.39496 6.11732 8.24652 5.96887C8.09805 5.82042 7.90207 5.7386 7.69418 5.7386H7.0769V4.10815H7.49155V4.90927H7.69418C8.1235 4.90927 8.52792 5.07735 8.83313 5.38254C9.13803 5.68745 9.30612 6.09216 9.30612 6.52121C9.30612 6.93254 9.15103 7.30795 8.897 7.59296C9.00452 7.66263 9.10568 7.7439 9.19858 7.83679C9.54248 8.18068 9.73184 8.63652 9.73184 9.12029Z" fill="#FFB528"/>
</svg>
